<?xml version="1.0" standalone="no"?>
<!DOCTYPE svg PUBLIC "-//W3C//DTD SVG 20010904//EN"
 "http://www.w3.org/TR/2001/REC-SVG-20010904/DTD/svg10.dtd">
<svg version="1.0" xmlns="http://www.w3.org/2000/svg"
 width="512.000000pt" height="512.000000pt" viewBox="0 0 512.000000 512.000000"
 preserveAspectRatio="xMidYMid meet">

<g transform="translate(0.000000,512.000000) scale(0.100000,-0.100000)"
fill="#000000" stroke="none">
<path d="M2519 5065 c-73 -40 -61 -216 16 -238 18 -5 41 -4 58 2 72 28 77 200
6 236 -34 18 -47 18 -80 0z"/>
<path d="M1685 4975 c-15 -14 -25 -36 -25 -53 0 -27 67 -202 106 -279 34 -66
119 -65 151 3 16 32 15 35 -41 173 -32 76 -68 149 -80 160 -31 29 -81 27 -111
-4z"/>
<path d="M3328 4980 c-16 -12 -45 -69 -83 -159 -54 -131 -57 -143 -45 -172 18
-43 68 -66 108 -50 34 14 44 33 107 185 53 127 55 157 19 191 -32 30 -72 32
-106 5z"/>
<path d="M1044 4466 c-21 -18 -28 -32 -28 -60 0 -32 9 -45 67 -103 58 -58 71
-67 103 -67 45 0 84 39 84 86 0 25 -13 45 -68 100 -78 77 -110 86 -158 44z"/>
<path d="M3918 4422 c-55 -55 -68 -75 -68 -100 0 -47 39 -86 84 -86 32 0 45 9
103 67 58 58 67 71 67 103 0 45 -39 84 -86 84 -25 0 -45 -13 -100 -68z"/>
<path d="M2093 4366 c-94 -31 -155 -67 -226 -135 l-58 -55 -117 -1 c-112 0
-120 -1 -187 -34 -123 -60 -210 -171 -237 -302 -10 -49 -16 -59 -46 -75 -75
-40 -149 -139 -167 -224 -4 -19 -7 -62 -7 -95 1 -50 -5 -72 -39 -140 -66 -133
-87 -303 -55 -440 16 -65 12 -74 -34 -75 -40 -1 -105 -35 -128 -67 -12 -17
-27 -57 -34 -89 l-13 -59 -115 -5 c-128 -6 -153 -16 -190 -75 -26 -41 -400
-1948 -400 -2035 1 -96 58 -181 150 -224 45 -21 55 -21 963 -24 l918 -2 36
-37 c82 -81 242 -126 453 -126 206 0 350 39 438 118 l49 45 919 2 c909 3 919
3 964 24 92 43 149 128 150 224 0 86 -375 1994 -400 2035 -37 59 -63 69 -190
75 l-115 5 -13 59 c-7 32 -22 72 -34 89 -23 33 -89 66 -130 67 l-26 0 5 74 c7
88 -8 176 -43 255 -24 52 -24 60 -13 119 19 106 -6 203 -77 289 -37 45 -118
98 -165 108 -23 5 -29 15 -44 72 -79 290 -356 514 -650 524 -57 3 -61 4 -110
54 -68 69 -131 98 -225 103 -91 5 -137 -6 -211 -51 l-56 -34 -56 29 c-127 64
-300 77 -434 34z m340 -179 l59 -27 -7 -41 c-14 -79 -9 -112 20 -136 32 -28
74 -29 108 -3 18 15 28 35 35 80 13 73 40 114 92 140 118 60 246 -13 264 -151
11 -80 81 -115 140 -68 17 14 26 30 26 50 0 25 4 29 28 29 15 0 50 -6 77 -14
175 -46 317 -174 380 -340 l25 -66 -57 -27 c-90 -44 -113 -104 -61 -160 28
-30 63 -29 133 3 44 20 67 25 101 21 91 -10 158 -85 159 -177 0 -61 -29 -112
-90 -158 -43 -32 -50 -43 -53 -76 -7 -77 70 -111 144 -65 33 20 34 20 42 2 4
-10 7 -56 7 -103 0 -72 -4 -94 -28 -145 -57 -122 -174 -203 -307 -213 -70 -5
-161 15 -206 45 l-23 15 21 41 c29 59 36 163 14 222 -33 85 -95 108 -148 55
-25 -26 -29 -36 -24 -63 19 -98 18 -121 -6 -157 -34 -50 -88 -67 -146 -44 -27
10 -51 29 -65 50 -23 35 -54 54 -88 54 -28 0 -79 -53 -79 -82 0 -36 53 -113
101 -148 66 -48 140 -65 218 -52 63 11 65 10 108 -20 82 -56 158 -80 268 -86
55 -2 117 0 138 6 20 6 37 7 37 2 0 -4 -27 -33 -61 -64 -69 -64 -148 -108
-241 -132 -98 -27 -130 -66 -104 -128 22 -53 59 -62 152 -36 42 11 83 19 89
16 17 -6 65 -129 65 -165 0 -60 -71 -107 -122 -80 -13 6 -48 35 -78 64 -68 64
-120 94 -236 139 -129 49 -183 78 -228 125 l-39 40 29 6 c90 20 135 37 149 57
19 29 19 67 -1 96 -26 38 -58 44 -127 26 -81 -22 -243 -21 -317 0 -30 9 -74
19 -97 23 -39 5 -45 2 -95 -41 -29 -26 -78 -59 -108 -74 -48 -23 -67 -26 -150
-26 -84 0 -102 3 -154 28 -187 91 -263 314 -170 498 13 26 24 57 24 68 0 32
-53 80 -87 80 -43 0 -67 -22 -97 -89 -15 -34 -32 -61 -37 -61 -43 0 -109 71
-109 118 0 80 -91 122 -145 67 -30 -30 -33 -87 -8 -161 24 -72 110 -154 184
-178 58 -18 69 -30 69 -83 0 -20 -5 -23 -47 -25 -131 -5 -211 10 -306 60 -225
117 -337 405 -246 634 l11 28 36 -30 c46 -38 93 -40 127 -5 41 40 34 84 -21
137 -25 23 -52 55 -60 70 -18 35 -18 121 0 157 25 47 81 89 130 96 66 10 104
-2 158 -53 61 -57 106 -63 144 -18 37 42 31 78 -18 133 -44 47 -144 103 -185
103 -33 0 -30 36 6 91 48 72 129 119 207 119 l34 0 -6 -54 c-6 -49 -4 -57 19
-80 36 -36 80 -35 118 3 16 16 29 37 29 46 0 26 48 113 87 156 48 53 111 96
176 120 79 29 222 22 300 -14z m-1256 -1701 c89 -75 183 -125 283 -151 71 -19
206 -24 286 -12 l50 7 33 -49 c66 -103 204 -196 328 -221 82 -17 224 -8 296
20 33 12 87 41 121 65 l62 42 65 -13 c35 -8 74 -14 87 -14 12 0 25 -8 29 -17
46 -137 160 -231 371 -307 104 -37 130 -52 197 -116 69 -66 121 -95 187 -105
97 -15 212 47 261 139 17 32 22 58 22 121 0 71 -4 90 -37 165 l-38 85 83 85
c86 89 150 194 180 296 8 28 26 68 39 88 23 36 38 41 87 27 25 -7 26 -16 177
-926 84 -506 151 -921 149 -923 -2 -2 -38 8 -82 21 -190 60 -420 101 -672 118
-318 23 -694 -22 -1020 -122 -35 -10 -65 -19 -67 -19 -2 0 -4 240 -4 533 0
486 -2 535 -18 567 -33 66 -111 66 -144 0 -16 -32 -18 -81 -18 -569 0 -504 -1
-533 -17 -526 -10 3 -85 24 -168 45 -462 120 -917 128 -1385 24 -63 -14 -150
-37 -193 -51 -44 -13 -80 -23 -82 -21 -5 5 299 1835 306 1842 3 3 30 9 60 13
l54 8 47 -59 c26 -32 64 -73 85 -90z m-462 -108 c-3 -13 -64 -376 -136 -808
-83 -497 -129 -801 -126 -827 6 -52 47 -110 93 -129 48 -20 99 -17 193 11 109
32 280 70 421 92 166 26 615 25 785 -1 66 -10 123 -21 127 -25 4 -4 2 -74 -5
-156 l-12 -150 -897 0 -896 0 -26 24 c-17 16 -26 35 -26 55 0 17 83 458 185
980 102 523 185 951 185 953 0 2 32 3 70 3 68 0 70 -1 65 -22z m3834 -30 c87
-428 361 -1860 361 -1883 0 -21 -9 -40 -26 -56 l-26 -24 -896 0 -897 0 -12
150 c-7 82 -9 153 -5 157 4 3 61 15 127 25 170 25 620 25 785 0 140 -22 311
-59 421 -92 46 -14 100 -25 122 -25 83 0 156 63 164 143 3 26 -43 330 -126
827 -72 432 -133 795 -136 808 -5 21 -3 22 64 22 l70 0 10 -52z m-2214 -1717
c33 -11 91 -31 129 -45 87 -33 109 -33 198 3 89 35 197 66 204 58 3 -3 12 -81
20 -172 17 -196 19 -191 -80 -225 -138 -47 -354 -47 -492 0 -96 33 -97 35 -84
186 15 183 20 214 33 214 7 0 39 -9 72 -19z"/>
<path d="M2173 3695 c-142 -44 -252 -175 -273 -323 -10 -74 3 -110 46 -128 63
-26 106 9 123 100 6 32 19 73 29 90 28 49 95 94 149 101 69 10 81 14 103 38
28 30 26 82 -5 112 -20 21 -34 25 -77 24 -29 0 -72 -6 -95 -14z"/>
<path d="M3023 3355 c-13 -9 -29 -37 -37 -64 -33 -113 -93 -185 -191 -232 -50
-24 -73 -29 -137 -29 -98 0 -166 25 -237 85 -63 54 -107 60 -146 20 -40 -39
-33 -77 21 -136 47 -49 185 -129 225 -129 26 0 24 -12 -8 -43 -37 -34 -110
-66 -153 -67 -80 0 -128 -66 -96 -128 19 -36 33 -42 100 -42 60 0 145 26 202
63 52 32 119 107 145 160 20 40 26 44 95 66 90 28 195 99 245 167 72 97 118
219 100 267 -20 52 -84 73 -128 42z"/>
<path d="M554 3836 c-42 -19 -59 -65 -40 -110 12 -30 27 -38 151 -89 76 -32
151 -57 167 -57 39 0 78 40 78 79 0 49 -36 77 -165 130 -155 62 -154 62 -191
47z"/>
<path d="M4420 3806 c-58 -24 -121 -50 -141 -58 -44 -19 -69 -52 -69 -91 0
-37 40 -77 78 -77 28 0 248 85 292 112 52 33 42 120 -16 144 -18 8 -35 14 -36
14 -2 0 -50 -20 -108 -44z"/>
</g>
</svg>
