<?xml version="1.0" standalone="no"?>
<!DOCTYPE svg PUBLIC "-//W3C//DTD SVG 20010904//EN"
 "http://www.w3.org/TR/2001/REC-SVG-20010904/DTD/svg10.dtd">
<svg version="1.0" xmlns="http://www.w3.org/2000/svg"
 width="512.000000pt" height="512.000000pt" viewBox="0 0 512.000000 512.000000"
 preserveAspectRatio="xMidYMid meet">

<g transform="translate(0.000000,512.000000) scale(0.100000,-0.100000)"
fill="#000000" stroke="none">
<path d="M154 4821 c-51 -23 -104 -75 -130 -127 -18 -38 -19 -70 -19 -1059 0
-929 2 -1031 18 -1140 44 -292 123 -547 248 -798 388 -775 1131 -1299 1989
-1403 137 -16 432 -18 568 -4 1062 113 1952 886 2213 1922 16 65 39 178 52
250 21 131 22 146 22 1163 l0 1030 -29 53 c-16 28 -44 64 -63 78 -76 58 105
54 -2465 54 -2283 0 -2364 -1 -2404 -19z m856 -484 l0 -324 -182 -6 c-99 -4
-284 -7 -410 -7 l-228 0 0 307 c0 301 0 307 22 330 l21 23 389 0 388 0 0 -323z
m730 -2 l0 -325 -275 0 -275 0 0 325 0 325 275 0 275 0 0 -325z m730 0 l0
-325 -275 0 -275 0 0 325 0 325 275 0 275 0 0 -325z m730 0 l0 -325 -275 0
-275 0 0 325 0 325 275 0 275 0 0 -325z m730 0 l0 -325 -270 0 -270 0 0 325 0
325 270 0 270 0 0 -325z m964 314 c14 -7 30 -25 36 -42 6 -18 10 -141 10 -313
l0 -284 -410 0 -410 0 0 325 0 325 375 0 c258 0 382 -4 399 -11z m44 -1276
l-3 -448 -90 -11 c-177 -22 -319 -63 -479 -138 -629 -294 -988 -981 -870
-1666 18 -103 56 -239 95 -332 l28 -70 -85 -39 c-176 -81 -411 -151 -629 -186
-85 -14 -167 -18 -355 -18 -268 1 -376 14 -606 74 -169 45 -434 149 -434 171
0 5 13 42 29 82 81 209 105 342 105 583 -1 156 -5 208 -23 289 -66 303 -181
530 -378 748 -260 287 -598 457 -1005 504 l-48 5 0 450 0 449 2375 0 2375 0
-2 -447z m-4598 -659 c125 -22 212 -50 336 -109 389 -183 663 -525 758 -946
46 -203 38 -464 -20 -667 -15 -51 -63 -181 -70 -191 -5 -6 -197 125 -285 195
-494 397 -816 1013 -865 1655 l-6 86 33 -4 c19 -3 72 -11 119 -19z m4590 -28
c0 -77 -30 -276 -60 -401 -122 -511 -414 -973 -820 -1298 -89 -72 -236 -173
-258 -179 -30 -7 -104 232 -123 400 -14 114 -6 316 15 422 68 341 274 659 555
857 182 129 477 238 654 242 l37 1 0 -44z"/>
</g>
</svg>
