<?xml version="1.0" standalone="no"?>
<!DOCTYPE svg PUBLIC "-//W3C//DTD SVG 20010904//EN"
 "http://www.w3.org/TR/2001/REC-SVG-20010904/DTD/svg10.dtd">
<svg version="1.0" xmlns="http://www.w3.org/2000/svg"
 width="512.000000pt" height="512.000000pt" viewBox="0 0 512.000000 512.000000"
 preserveAspectRatio="xMidYMid meet">

<g transform="translate(0.000000,512.000000) scale(0.100000,-0.100000)"
fill="#000000" stroke="none">
<path d="M154 4821 c-51 -23 -104 -75 -130 -127 -18 -38 -19 -70 -19 -1059 0
-929 2 -1031 18 -1140 44 -292 123 -547 248 -798 388 -775 1131 -1299 1989
-1403 137 -16 432 -18 568 -4 1062 113 1952 886 2213 1922 16 65 39 178 52
250 21 131 22 146 22 1163 l0 1030 -29 53 c-16 28 -44 64 -63 78 -76 58 105
54 -2465 54 -2283 0 -2364 -1 -2404 -19z m856 -484 l0 -324 -182 -6 c-99 -4
-284 -7 -410 -7 l-228 0 0 307 c0 301 0 307 22 330 l21 23 389 0 388 0 0 -323z
m730 -2 l0 -325 -150 0 c-141 0 -154 2 -201 25 -27 14 -83 31 -124 38 l-75 12
0 287 0 288 275 0 275 0 0 -325z m730 0 l0 -325 -67 0 c-66 0 -69 1 -92 35
-27 39 -110 85 -155 85 -48 -1 -108 -33 -148 -79 -25 -29 -43 -41 -61 -41
l-27 0 0 325 0 325 275 0 275 0 0 -325z m730 0 l0 -325 -275 0 -275 0 0 325 0
325 275 0 275 0 0 -325z m730 0 l0 -325 -270 0 -270 0 0 325 0 325 270 0 270
0 0 -325z m964 314 c14 -7 30 -25 36 -42 6 -18 10 -141 10 -313 l0 -284 -410
0 -410 0 0 325 0 325 375 0 c258 0 382 -4 399 -11z m-3901 -881 c9 -79 76
-205 145 -275 156 -158 372 -186 477 -61 44 52 58 95 58 178 -1 69 -7 96 -48
193 -7 16 4 17 153 17 l159 0 6 -49 c11 -94 73 -184 149 -215 48 -21 84 -20
133 3 78 35 125 108 150 234 l5 27 1280 0 1280 0 -2 -447 -3 -448 -90 -11
c-120 -15 -188 -30 -295 -64 -259 -84 -520 -255 -688 -450 -77 -90 -186 -251
-226 -338 -16 -34 -32 -62 -35 -62 -6 0 -147 184 -194 253 -26 39 -34 86 -21
122 4 9 50 49 103 89 53 41 106 84 118 97 63 68 84 204 45 292 -44 99 -142
161 -252 161 -84 0 -137 -24 -216 -97 -34 -31 -74 -61 -89 -67 -37 -14 -88 3
-115 37 -38 48 -28 80 70 228 132 199 151 236 157 304 23 254 -286 401 -470
223 -57 -54 -75 -97 -96 -230 -22 -136 -28 -151 -77 -189 -50 -37 -83 -34
-194 17 -108 50 -168 59 -234 37 -65 -22 -108 -59 -142 -119 -24 -44 -29 -64
-28 -118 1 -79 16 -111 95 -201 66 -73 79 -111 55 -157 -47 -91 -140 -95 -211
-10 -88 106 -221 232 -269 254 -106 50 -241 22 -317 -64 -53 -60 -72 -114 -67
-196 8 -139 47 -183 278 -310 144 -80 167 -96 183 -129 25 -50 17 -70 -80
-206 l-78 -110 -14 32 c-83 187 -177 336 -298 469 -260 287 -598 457 -1005
504 l-48 5 0 450 0 449 399 0 398 0 6 -52z m-653 -1054 c125 -22 212 -50 336
-109 389 -183 663 -525 758 -946 46 -203 38 -464 -20 -667 -15 -51 -63 -181
-70 -191 -5 -6 -197 125 -285 195 -494 397 -816 1013 -865 1655 l-6 86 33 -4
c19 -3 72 -11 119 -19z m4590 -28 c0 -77 -30 -276 -60 -401 -122 -511 -414
-973 -820 -1298 -89 -72 -236 -173 -258 -179 -30 -7 -104 232 -123 400 -14
114 -6 316 15 422 68 341 274 659 555 857 182 129 477 238 654 242 l37 1 0
-44z m-2127 -969 c18 -8 81 -66 141 -130 87 -94 121 -123 173 -149 101 -50
224 -50 341 -2 9 4 12 -11 12 -58 0 -62 14 -209 27 -277 l6 -34 -34 26 c-157
119 -349 109 -417 -23 -55 -107 15 -253 160 -330 54 -29 75 -35 149 -38 72 -4
92 -1 127 17 23 12 52 37 65 56 l24 35 21 -51 22 -51 -86 -39 c-176 -81 -411
-151 -629 -186 -85 -14 -167 -18 -355 -18 -268 1 -376 14 -606 74 -169 45
-434 149 -434 171 0 5 10 33 21 62 57 140 92 286 115 471 l5 48 32 -21 c68
-46 155 -80 229 -91 137 -20 290 27 390 121 26 25 106 122 176 215 90 119 140
177 168 192 45 26 109 30 157 10z"/>
<path d="M4125 2100 c-46 -7 -93 -30 -116 -56 -102 -117 -32 -297 150 -387 55
-27 76 -32 140 -32 64 0 83 4 121 27 58 34 90 89 90 155 0 64 -47 161 -98 203
-80 66 -197 103 -287 90z"/>
</g>
</svg>
