<?xml version="1.0" standalone="no"?>
<!DOCTYPE svg PUBLIC "-//W3C//DTD SVG 20010904//EN"
 "http://www.w3.org/TR/2001/REC-SVG-20010904/DTD/svg10.dtd">
<svg version="1.0" xmlns="http://www.w3.org/2000/svg"
 width="512.000000pt" height="512.000000pt" viewBox="0 0 512.000000 512.000000"
 preserveAspectRatio="xMidYMid meet">

<g transform="translate(0.000000,512.000000) scale(0.100000,-0.100000)"
fill="#000000" stroke="none">
<path d="M154 4821 c-51 -23 -104 -75 -130 -127 -18 -38 -19 -70 -19 -1059 0
-929 2 -1031 18 -1140 44 -292 123 -547 248 -798 388 -775 1131 -1299 1989
-1403 137 -16 432 -18 568 -4 1062 113 1952 886 2213 1922 16 65 39 178 52
250 21 131 22 146 22 1163 l0 1030 -29 53 c-16 28 -44 64 -63 78 -76 58 105
54 -2465 54 -2283 0 -2364 -1 -2404 -19z m856 -484 l0 -324 -182 -6 c-99 -4
-284 -7 -410 -7 l-228 0 0 307 c0 301 0 307 22 330 l21 23 389 0 388 0 0 -323z
m730 -2 l0 -325 -275 0 -275 0 0 325 0 325 275 0 275 0 0 -325z m730 0 l0
-325 -275 0 -275 0 0 325 0 325 275 0 275 0 0 -325z m730 0 l0 -325 -275 0
-275 0 0 325 0 325 275 0 275 0 0 -325z m730 0 l0 -325 -270 0 -270 0 0 325 0
325 270 0 270 0 0 -325z m964 314 c14 -7 30 -25 36 -42 6 -18 10 -141 10 -313
l0 -284 -410 0 -410 0 0 325 0 325 375 0 c258 0 382 -4 399 -11z m44 -1276
l-3 -448 -90 -11 c-177 -22 -319 -63 -479 -138 -629 -294 -988 -981 -870
-1666 18 -103 56 -239 95 -332 l28 -70 -85 -39 c-176 -81 -411 -151 -629 -186
-85 -14 -167 -18 -355 -18 -268 1 -376 14 -606 74 -169 45 -434 149 -434 171
0 5 13 42 29 82 81 209 105 342 105 583 -1 156 -5 208 -23 289 -66 303 -181
530 -378 748 -260 287 -598 457 -1005 504 l-48 5 0 450 0 449 2375 0 2375 0
-2 -447z m-4598 -659 c125 -22 212 -50 336 -109 389 -183 663 -525 758 -946
46 -203 38 -464 -20 -667 -15 -51 -63 -181 -70 -191 -5 -6 -197 125 -285 195
-494 397 -816 1013 -865 1655 l-6 86 33 -4 c19 -3 72 -11 119 -19z m4590 -28
c0 -77 -30 -276 -60 -401 -122 -511 -414 -973 -820 -1298 -89 -72 -236 -173
-258 -179 -30 -7 -104 232 -123 400 -14 114 -6 316 15 422 68 341 274 659 555
857 182 129 477 238 654 242 l37 1 0 -44z"/>
<path d="M2414 3553 c-153 -156 -264 -412 -264 -610 0 -76 27 -196 60 -270 16
-35 64 -114 107 -176 212 -306 250 -379 260 -496 12 -149 -65 -311 -261 -545
-56 -67 -66 -84 -66 -117 0 -55 40 -98 99 -106 43 -6 43 -6 110 65 141 148
269 360 311 512 24 91 27 226 4 314 -24 97 -95 228 -220 406 -125 179 -156
232 -174 299 -16 60 -14 185 5 255 21 81 85 200 145 272 69 81 84 116 70 160
-16 48 -53 74 -106 74 -37 0 -49 -6 -80 -37z"/>
<path d="M2882 3315 c-31 -26 -88 -132 -123 -230 -15 -42 -23 -93 -26 -170 -6
-139 5 -176 130 -415 232 -446 250 -491 250 -640 1 -151 -45 -252 -180 -401
-66 -71 -73 -84 -73 -120 0 -56 51 -109 105 -109 32 0 46 9 106 66 159 154
245 327 256 516 10 169 -30 311 -155 553 -196 380 -224 441 -229 503 -7 72 13
146 68 256 50 100 51 136 5 182 -43 43 -90 46 -134 9z"/>
<path d="M1783 3185 c-26 -11 -41 -32 -76 -102 -81 -160 -108 -289 -87 -412
13 -78 100 -266 192 -416 157 -256 189 -329 189 -439 1 -118 -46 -211 -175
-352 -36 -40 -70 -83 -75 -96 -27 -72 48 -153 125 -134 63 16 214 193 280 328
88 182 83 344 -16 553 -16 33 -67 125 -115 204 -47 79 -109 189 -137 245 -80
159 -78 241 12 428 22 45 40 90 40 100 0 35 -31 79 -65 94 -42 17 -51 17 -92
-1z"/>
</g>
</svg>
