<?xml version="1.0" standalone="no"?>
<!DOCTYPE svg PUBLIC "-//W3C//DTD SVG 20010904//EN"
 "http://www.w3.org/TR/2001/REC-SVG-20010904/DTD/svg10.dtd">
<svg version="1.0" xmlns="http://www.w3.org/2000/svg"
 width="512.000000pt" height="512.000000pt" viewBox="0 0 512.000000 512.000000"
 preserveAspectRatio="xMidYMid meet">

<g transform="translate(0.000000,512.000000) scale(0.100000,-0.100000)"
fill="#000000" stroke="none">
<path d="M2125 5089 c-272 -41 -542 -210 -689 -432 -131 -199 -354 -704 -437
-990 -53 -182 -63 -258 -63 -452 0 -237 27 -376 118 -617 56 -148 46 -210 -52
-331 -84 -104 -126 -173 -152 -251 -41 -125 -36 -240 16 -357 35 -78 44 -85
86 -63 18 10 265 113 548 229 l515 213 3 217 2 216 -55 67 c-52 62 -133 206
-147 260 -6 21 -11 22 -91 22 -129 0 -198 35 -242 123 -23 46 -25 62 -25 178
0 119 2 130 28 180 42 80 100 113 209 118 l83 3 0 99 c0 131 0 132 156 147
325 33 639 143 899 317 127 85 148 85 187 3 47 -99 127 -163 234 -189 85 -21
84 -19 84 -210 l0 -167 83 -3 c109 -5 167 -38 209 -118 26 -50 28 -61 28 -181
0 -120 -2 -131 -28 -181 -20 -39 -41 -62 -77 -84 -43 -27 -59 -31 -148 -35
l-100 -5 -13 -38 c-24 -70 -84 -173 -139 -239 l-55 -67 2 -216 3 -217 515
-212 c283 -117 530 -220 548 -230 18 -9 37 -14 42 -11 19 12 60 105 76 172 19
81 14 169 -16 259 -26 78 -68 147 -152 251 -98 120 -107 172 -57 313 103 291
119 362 126 556 6 151 -2 228 -43 429 -66 323 -202 722 -293 862 -118 182
-311 306 -528 343 -49 8 -73 16 -73 26 0 7 -10 39 -22 71 -29 79 -120 171
-203 204 -60 24 -63 24 -450 25 -214 1 -417 -2 -450 -7z"/>
<path d="M2915 3891 c-6 -6 -61 -40 -123 -75 -217 -124 -493 -219 -730 -252
-65 -9 -127 -18 -140 -20 l-24 -5 4 -312 c3 -308 4 -313 30 -388 37 -106 90
-192 163 -264 317 -317 853 -231 1050 169 70 141 75 177 75 584 0 327 -1 353
-17 358 -87 25 -194 103 -253 182 -18 23 -28 30 -35 23z"/>
<path d="M1631 3286 c-13 -7 -30 -24 -37 -37 -17 -31 -19 -218 -2 -254 17 -38
58 -55 130 -55 l63 0 -3 180 -3 180 -62 0 c-34 -1 -73 -7 -86 -14z"/>
<path d="M3340 3136 c0 -90 -3 -171 -6 -180 -5 -14 4 -16 60 -16 76 0 117 16
134 55 7 14 12 69 12 125 0 56 -5 111 -12 125 -17 38 -58 55 -128 55 l-60 0 0
-164z"/>
<path d="M2141 2203 l0 -178 210 -173 209 -174 209 174 210 173 0 178 1 177
-70 -35 c-117 -59 -207 -79 -350 -79 -143 0 -233 20 -350 79 l-70 35 1 -177z"/>
<path d="M1903 1863 c-90 -37 -163 -70 -163 -73 0 -3 96 -101 213 -218 l212
-212 145 116 c80 64 145 120 145 125 0 7 -380 330 -387 329 -2 -1 -76 -31
-165 -67z"/>
<path d="M2855 1769 c-104 -88 -191 -163 -192 -167 -1 -4 64 -60 145 -124
l147 -117 213 212 c116 117 212 214 212 217 0 6 -322 141 -331 139 -2 0 -89
-72 -194 -160z"/>
<path d="M1304 1616 c-161 -66 -315 -136 -343 -154 -61 -40 -124 -119 -154
-194 -20 -49 -22 -74 -25 -330 -3 -269 -3 -277 17 -297 20 -20 31 -21 341 -21
l320 0 0 180 c0 167 1 181 20 200 11 11 29 20 40 20 11 0 29 -9 40 -20 19 -19
20 -33 20 -500 l0 -480 980 0 980 0 0 480 c0 467 1 481 20 500 25 25 55 25 80
0 19 -19 20 -33 20 -200 l0 -180 320 0 c310 0 321 1 341 21 20 20 20 28 17
297 -3 256 -5 281 -25 330 -30 75 -91 152 -154 194 -30 20 -188 91 -352 159
l-298 122 -263 -261 c-179 -180 -269 -262 -283 -262 -21 0 -98 57 -310 228
l-93 74 -142 -114 c-211 -169 -237 -188 -261 -188 -14 0 -104 83 -282 260
-143 143 -265 260 -270 259 -6 -1 -141 -56 -301 -123z"/>
<path d="M940 280 c0 -207 1 -221 20 -240 19 -19 33 -20 260 -20 l240 0 0 240
0 240 -260 0 -260 0 0 -220z"/>
<path d="M3660 260 l0 -240 240 0 c227 0 241 1 260 20 19 19 20 33 20 240 l0
220 -260 0 -260 0 0 -240z"/>
</g>
</svg>
