<?xml version="1.0" standalone="no"?>
<!DOCTYPE svg PUBLIC "-//W3C//DTD SVG 20010904//EN"
 "http://www.w3.org/TR/2001/REC-SVG-20010904/DTD/svg10.dtd">
<svg version="1.0" xmlns="http://www.w3.org/2000/svg"
 width="512.000000pt" height="512.000000pt" viewBox="0 0 512.000000 512.000000"
 preserveAspectRatio="xMidYMid meet">

<g transform="translate(0.000000,512.000000) scale(0.100000,-0.100000)"
fill="#000000" stroke="none">
<path d="M2420 5095 c-346 -75 -633 -227 -861 -454 -172 -173 -278 -343 -347
-561 -57 -178 -62 -230 -62 -601 l0 -339 25 -16 c23 -15 27 -15 50 0 l25 16 0
256 c0 194 4 273 16 332 58 281 267 502 551 584 77 23 82 23 743 23 661 0 666
0 743 -23 284 -82 493 -304 551 -584 12 -59 16 -138 16 -332 l0 -256 25 -16
c23 -15 27 -15 51 1 l26 16 -5 402 c-3 334 -7 413 -21 467 -61 238 -187 421
-376 550 -79 53 -139 82 -272 129 -292 103 -450 193 -636 364 -84 78 -82 77
-242 42z"/>
<path d="M1890 4154 c-172 -37 -335 -167 -409 -325 -61 -131 -63 -150 -59
-669 l4 -465 26 -98 c54 -198 157 -376 303 -522 145 -145 324 -249 522 -302
89 -24 115 -27 283 -27 169 0 193 3 285 27 437 118 763 475 840 921 19 110 22
911 4 998 -46 223 -240 416 -464 463 -100 21 -1237 20 -1335 -1z"/>
<path d="M2019 1636 c-10 -20 -8 -31 9 -58 30 -49 52 -141 52 -220 0 -64 2
-70 36 -107 52 -58 137 -111 234 -145 77 -28 96 -30 210 -30 114 0 133 2 210
30 97 34 182 87 234 145 34 37 36 43 36 107 0 76 20 162 50 222 36 70 -2 99
-84 65 -20 -9 -85 -28 -144 -43 -98 -24 -123 -27 -302 -27 -179 0 -204 3 -302
27 -59 15 -124 34 -144 43 -53 22 -82 19 -95 -9z"/>
<path d="M1458 1615 c-182 -67 -523 -527 -600 -810 -19 -73 -22 -111 -26 -412
l-4 -333 30 -30 30 -30 1672 0 1672 0 30 30 30 30 -4 333 c-5 385 -10 411
-102 603 -96 199 -202 342 -384 515 -110 105 -143 119 -283 119 -150 0 -221
-34 -275 -132 -25 -48 -29 -65 -32 -163 -4 -108 -5 -111 -39 -155 -77 -97
-180 -172 -302 -219 -298 -114 -598 -65 -856 139 -106 84 -103 78 -107 220 -3
116 -5 129 -32 178 -33 59 -76 96 -137 117 -53 19 -230 19 -281 0z"/>
</g>
</svg>
