<?xml version="1.0" standalone="no"?>
<!DOCTYPE svg PUBLIC "-//W3C//DTD SVG 20010904//EN"
 "http://www.w3.org/TR/2001/REC-SVG-20010904/DTD/svg10.dtd">
<svg version="1.0" xmlns="http://www.w3.org/2000/svg"
 width="512.000000pt" height="512.000000pt" viewBox="0 0 512.000000 512.000000"
 preserveAspectRatio="xMidYMid meet">

<g transform="translate(0.000000,512.000000) scale(0.100000,-0.100000)"
fill="#000000" stroke="none">
<path d="M154 4821 c-51 -23 -104 -75 -130 -127 -18 -38 -19 -70 -19 -1059 0
-929 2 -1031 18 -1140 44 -292 123 -547 248 -798 388 -775 1131 -1299 1989
-1403 137 -16 432 -18 568 -4 1062 113 1952 886 2213 1922 16 65 39 178 52
250 21 131 22 146 22 1163 l0 1030 -29 53 c-16 28 -44 64 -63 78 -76 58 105
54 -2465 54 -2283 0 -2364 -1 -2404 -19z m856 -484 l0 -324 -182 -6 c-99 -4
-284 -7 -410 -7 l-228 0 0 307 c0 301 0 307 22 330 l21 23 389 0 388 0 0 -323z
m730 -2 l0 -325 -275 0 -275 0 0 325 0 325 275 0 275 0 0 -325z m730 0 l0
-325 -275 0 -275 0 0 325 0 325 275 0 275 0 0 -325z m730 0 l0 -325 -275 0
-275 0 0 325 0 325 275 0 275 0 0 -325z m730 0 l0 -325 -270 0 -270 0 0 325 0
325 270 0 270 0 0 -325z m964 314 c14 -7 30 -25 36 -42 6 -18 10 -141 10 -313
l0 -284 -410 0 -410 0 0 325 0 325 375 0 c258 0 382 -4 399 -11z m-2948 -991
c-278 -279 -457 -535 -585 -834 -45 -104 -97 -276 -107 -355 -4 -27 -10 -49
-15 -49 -5 0 -18 14 -31 30 -29 40 -155 145 -253 212 -197 133 -451 223 -717
254 l-48 5 0 450 0 449 959 0 958 0 -161 -162z m2992 -285 l-3 -448 -90 -11
c-350 -44 -640 -183 -913 -439 l-53 -49 6 59 c4 33 2 105 -5 160 -34 284 -170
557 -420 840 -125 141 -235 235 -276 235 -42 0 -99 -45 -229 -182 -306 -321
-475 -674 -475 -993 0 -126 21 -218 77 -335 39 -81 59 -107 137 -185 144 -144
289 -205 487 -205 120 0 226 26 327 80 55 30 72 36 67 23 -22 -51 -65 -210
-81 -298 -24 -133 -24 -375 -1 -505 21 -114 59 -248 98 -342 l28 -70 -85 -39
c-176 -81 -411 -151 -629 -186 -85 -14 -167 -18 -355 -18 -268 1 -376 14 -606
74 -169 45 -434 149 -434 171 0 5 13 42 29 82 66 169 98 321 108 504 l6 121
62 -38 c122 -74 256 -119 420 -140 282 -37 627 97 828 321 84 94 84 95 -33
129 -280 83 -511 327 -592 626 -29 107 -31 330 -4 455 42 198 148 434 271 605
36 50 65 98 65 108 0 10 -72 89 -160 177 l-159 160 1294 0 1295 0 -2 -447z
m-4598 -659 c125 -22 212 -50 336 -109 136 -64 235 -130 344 -230 85 -78 181
-187 204 -234 8 -14 21 -64 31 -111 23 -118 65 -222 134 -332 l59 -93 11 -127
c14 -168 -1 -332 -45 -486 -15 -51 -63 -181 -70 -191 -5 -6 -197 125 -285 195
-494 397 -816 1013 -865 1655 l-6 86 33 -4 c19 -3 72 -11 119 -19z m4590 -28
c0 -77 -30 -276 -60 -401 -122 -511 -414 -973 -820 -1298 -89 -72 -236 -173
-258 -179 -30 -7 -104 232 -123 400 -14 114 -6 316 15 422 68 341 274 659 555
857 182 129 477 238 654 242 l37 1 0 -44z"/>
</g>
</svg>
